<?xml version="1.0" encoding="UTF-8"?>
<svg width="32" height="32" viewBox="0 0 32 32" fill="none" xmlns="http://www.w3.org/2000/svg">
    <!-- Background Circle -->
    <circle cx="16" cy="16" r="15" fill="#00b894"/>
    
    <!-- Plate -->
    <circle cx="16" cy="16" r="10" fill="white" opacity="0.95"/>
    <circle cx="16" cy="16" r="8" fill="#00b894" opacity="0.1"/>
    
    <!-- Brain Circuit -->
    <path d="M12 14C12 12 13 11 14 11C15 11 16 12 16 14C16 16 15 17 14 17C13 17 12 16 12 14Z" fill="white" opacity="0.9"/>
    <path d="M14 14C14 12 15 11 16 11C17 11 18 12 18 14C18 16 17 17 16 17C15 17 14 16 14 14Z" fill="white" opacity="0.9"/>
    
    <!-- Circuit Connection -->
    <path d="M14 14L16 14" stroke="white" stroke-width="1.5" stroke-linecap="round"/>
    
    <!-- Fork and Knife -->
    <path d="M8 8L8 12" stroke="white" stroke-width="2" stroke-linecap="round"/>
    <path d="M24 8L24 12" stroke="white" stroke-width="2" stroke-linecap="round"/>
</svg> 