<?xml version="1.0" encoding="UTF-8"?>
<svg width="200" height="200" viewBox="0 0 200 200" fill="none" xmlns="http://www.w3.org/2000/svg">
    <!-- Background Circle -->
    <circle cx="100" cy="100" r="90" fill="#00b894"/>
    
    <!-- Plate -->
    <circle cx="100" cy="100" r="60" fill="white" opacity="0.95"/>
    <circle cx="100" cy="100" r="50" fill="#00b894" opacity="0.1"/>
    
    <!-- Brain Circuit -->
    <path d="M70 80C70 70 80 60 90 60C100 60 110 70 110 80C110 90 100 100 90 100C80 100 70 90 70 80Z" fill="white" opacity="0.9"/>
    <path d="M90 80C90 70 100 60 110 60C120 60 130 70 130 80C130 90 120 100 110 100C100 100 90 90 90 80Z" fill="white" opacity="0.9"/>
    <path d="M80 100C80 90 90 80 100 80C110 80 120 90 120 100C120 110 110 120 100 120C90 120 80 110 80 100Z" fill="white" opacity="0.9"/>
    
    <!-- Circuit Connections -->
    <path d="M90 80L100 80" stroke="white" stroke-width="3" stroke-linecap="round"/>
    <path d="M110 80L120 80" stroke="white" stroke-width="3" stroke-linecap="round"/>
    <path d="M100 100L100 110" stroke="white" stroke-width="3" stroke-linecap="round"/>
    
    <!-- Fork and Knife -->
    <path d="M60 40L60 70" stroke="white" stroke-width="4" stroke-linecap="round"/>
    <path d="M65 40L65 70" stroke="white" stroke-width="4" stroke-linecap="round"/>
    <path d="M140 40L140 70" stroke="white" stroke-width="4" stroke-linecap="round"/>
    
    <!-- Text -->
    <text x="100" y="160" font-family="Arial" font-size="24" fill="white" text-anchor="middle" font-weight="bold">NutriBot</text>
    <text x="100" y="180" font-family="Arial" font-size="14" fill="white" text-anchor="middle">AI Nutrition Coach</text>
</svg> 